# AST/ASF file generated using VICON BodyLanguage
# -----------------------------------------------
:version 1.10
:name VICON
:units
  mass 1.0
  length 0.45
  angle deg
:documentation
   .ast/.asf automatically generated from VICON data using
   VICON BodyBuilder and BodyLanguage model FoxedUp or BRILLIANT.MOD
:root
   order TX TY TZ RX RY RZ
   axis XYZ
   position 0 0 0  
   orientation 0 0 0 
:bonedata
  begin
     id 1 
     name lhipjoint
     direction 0.662698 -0.695252 0.27831 
     length 2.53073 
     axis 0 0 0  XYZ
  end
  begin
     id 2 
     name lfemur
     direction 0.34202 -0.939693 0  
     length 7.16147  
     axis 0 0 20  XYZ
    dof rx ry rz
    limits (-160.0 20.0)
           (-70.0 70.0)
           (-60.0 70.0)
  end
  begin
     id 3 
     name ltibia
     direction 0.34202 -0.939693 0   
     length 7.63967   
     axis 0 0 20   XYZ
    dof rx
    limits (-10.0 170.0)
  end
  begin
     id 4 
     name lfoot
     direction 0.0938457 -0.257721 0.961651   
     length 1.89793   
     axis -90 7.62852e-016 20   XYZ
    dof rx rz
    limits (-45.0 90.0)
           (-70.0 20.0)
  end
  begin
     id 5 
     name ltoes
     direction -0.00116841 -0.0030592 0.999995   
     length 0.955649   
     axis -90 7.62852e-016 20   XYZ
    dof rx
    limits (-90.0 20.0)
  end
  begin
     id 6 
     name rhipjoint
     direction -0.649445 -0.705948 0.282592   
     length 2.49238  
     axis 0 0 0  XYZ 
  end
  begin
     id 7 
     name rfemur
     direction -0.34202 -0.939693 0   
     length 6.90728   
     axis 0 0 -20   XYZ
    dof rx ry rz
    limits (-160.0 20.0)
           (-70.0 70.0)
           (-70.0 60.0)
  end
  begin
     id 8 
     name rtibia
     direction -0.34202 -0.939693 0   
     length 7.72868   
     axis 0 0 -20   XYZ
    dof rx
    limits (-10.0 170.0)
 end
 begin
     id 9 
     name rfoot
     direction -0.0920068 -0.252865 0.963117   
     length 1.97476  
     axis -90 -7.62852e-016 -20   XYZ
    dof rx rz
    limits (-45.0 90.0)
           (-20.0 70.0)
  end
  begin
     id 10 
     name rtoes
     direction 0.000391322 0.00230649 0.999997   
     length 0.992641   
     axis -90 -7.62852e-016 -20   XYZ
    dof rx
    limits (-90.0 20.0)
  end
  begin
     id 11 
     name lowerback
     direction -0.00875327 0.998321 -0.0572635   
     length 2.20024   
     axis 0 0 0   XYZ
    dof rx ry rz
    limits (-20.0 45.0)
           (-30.0 30.0)
           (-30.0 30.0)
  end
  begin
     id 12 
     name upperback
     direction 0.00753931 0.999972 -0.000360425   
     length 2.20538   
     axis 0 0 0   XYZ
    dof rx ry rz
    limits (-20.0 45.0)
           (-30.0 30.0)
           (-30.0 30.0)
  end
  begin
     id 13 
     name thorax
     direction 0.0117767 0.999601 0.0256663   
     length 2.21508   
     axis 0 0 0   XYZ
    dof rx ry rz
    limits (-20.0 45.0)
           (-30.0 30.0)
           (-30.0 30.0)
  end
  begin
     id 14 
     name lowerneck
     direction 0.060228 0.994909 0.0807986   
     length 1.7607   
     axis 0 0 0   XYZ
    dof rx ry rz
    limits (-20.0 45.0)
           (-30.0 30.0)
           (-30.0 30.0)
  end
  begin
     id 15 
     name upperneck
     direction -0.0563647 0.959594 -0.275685   
     length 1.75612   
     axis 0 0 0   XYZ
    dof rx ry rz
    limits (-20.0 45.0)
           (-30.0 30.0)
           (-30.0 30.0)
  end
  begin
     id 16
     name head
     direction -0.0161544 0.99458 -0.102714  
     length 1.79288  
     axis 0 0 0   XYZ
    dof rx ry rz
    limits (-20.0 45.0)
           (-30.0 30.0)
           (-30.0 30.0)
  end
  begin
     id 17 
     name lclavicle
     direction 0.93913 0.332189 -0.087669  
     length 3.52087  
     axis 0 0 0   XYZ
    dof ry rz
    limits (-20.0 10.0)
           (0.0 20.0)
  end
  begin
     id 18 
     name lhumerus
     direction 1 -4.48974e-011 -2.70836e-027   
     length 5.35289   
     axis -180 -30 -90   XYZ
    dof rx ry rz
    limits (-60.0 90.0)
           (-90.0 90.0)
           (-90.0 90.0)
  end
  begin
     id 19
     name lradius
     direction 1 -4.48961e-011 -9.76021e-027   
     length 3.27727   
     axis -180 -30 -90   XYZ
    dof rx
    limits (-10.0 170.0)
  end
  begin
     id 20
     name lwrist
     direction 1 -4.49103e-011 -2.23668e-026   
     length 1.63864   
     axis 1.44924e-014 90 90   XYZ
    dof ry
    limits (-180.0 0.0)
 end
  begin
     id 21 
     name lhand
     direction 1 3.0697e-005 0.000161777   
     length 0.54443   
     axis 2.85318e-014 90 90   XYZ
    dof rx rz
    limits (-90.0 90.0)
           (-45.0 45.0)
  end
  begin
     id 22 
     name lfingers
     direction 1 -4.49027e-011 -8.9447e-026   
     length 0.438912   
     axis 5.70628e-014 90 90   XYZ
    dof rx
    limits (0.0 90.0)
  end
  begin
     id 23
     name lthumb
     direction 0.707058 2.6516e-005 0.707156   
     length 0.630274   
     axis -90 45 -3.53137e-014   XYZ
    dof rx rz
    limits (-45.0 45.0)
           (-45.0 45.0)
  end
  begin
     id 24 
     name rclavicle
     direction -0.95274 0.284984 -0.105215   
     length 3.43401  
     axis 0 0 0   XYZ 
    dof ry rz
    limits (-10.0 20.0)
           (-20.0 0.0)
  end
  begin
     id 25 
     name rhumerus
     direction -0.999999 -0.000575019 -0.00106829  
     length 5.52077   
     axis -180 30 90   XYZ
    dof rx ry rz
    limits (-90.0 60.0)
           (-90.0 90.0)
           (-90.0 90.0)
  end
  begin
     id 26 
     name rradius
     direction -1 -4.4879e-011 -6.35415e-027   
     length 3.32364   
     axis -180 30 90   XYZ
    dof rx
    limits (-10.0 170.0)
  end
  begin
     id 27 
     name rwrist
     direction -1 -4.49048e-011 -9.98542e-027   
     length 1.66182   
     axis 6.32482e-015 -90 -90   XYZ
    dof ry
    limits (-180.0 0.0)
  end
  begin
     id 28
     name rhand
     direction -1 -4.48978e-011 -1.99771e-026   
     length 0.732235   
     axis 1.27479e-014 -90 -90   XYZ
    dof rx rz
    limits (-90.0 90.0)
           (-45.0 45.0)
  end
  begin
     id 29
     name rfingers
     direction -1 -4.49144e-011 -3.99245e-026   
     length 0.590347   
     axis 2.5496e-014 -90 -90   XYZ
    dof rx
    limits (0.0 90.0)
  end
  begin
     id 30
     name rthumb
     direction -0.707107 -6.35121e-011 0.707107   
     length 0.847624   
     axis -90 -45 -2.82974e-014   XYZ
    dof rx rz
    limits (-45.0 45.0)
           (-45.0 45.0)
  end
:hierarchy
  begin
    root lhipjoint rhipjoint lowerback
    lhipjoint lfemur
    lfemur ltibia
    ltibia lfoot
    lfoot ltoes
    rhipjoint rfemur
    rfemur rtibia
    rtibia rfoot
    rfoot rtoes
    lowerback upperback
    upperback thorax
    thorax lowerneck lclavicle rclavicle
    lowerneck upperneck
    upperneck head
    lclavicle lhumerus
    lhumerus lradius
    lradius lwrist
    lwrist lhand lthumb
    lhand lfingers
    rclavicle rhumerus
    rhumerus rradius
    rradius rwrist
    rwrist rhand rthumb
    rhand rfingers
  end

#!OML:ASF G:\Work\Work\Patient Classification 1\Elijah\terrain1\Elijah.ASF
:FULLY-SPECIFIED
:DEGREES
349
root 15.5358 21.5485 24.15 5.22424 3.65066 6.9936
lowerback 3.93315 -0.115281 -9.74691
upperback -0.297488 -0.686774 -2.98973
thorax -2.44989 -0.231286 2.39272
lowerneck -15.7788 10.693 13.8879
upperneck 16.6414 15.1034 -16.9438
head 10.372 6.33731 -5.98754
rclavicle 1.98785e-016 -2.38542e-015
rhumerus -47.2318 -4.34181 -79.7725
rradius 24.3311
rwrist 5.69828
rhand -12.79 22.4728
rfingers 7.12502
rthumb 13.2956 -7.08312
lclavicle 1.98785e-016 -2.38542e-015
lhumerus -35.8314 3.55099 81.0368
lradius 41.1839
lwrist 7.70217
lhand -17.3758 22.5752
lfingers 7.12502
lthumb 8.87268 52.3686
rfemur -44.0419 -14.745 21.5013
rtibia 36.9733
rfoot 9.66061 -6.75133
rtoes -25.3504
lfemur 6.69756 -5.37442 -29.4313
ltibia 26.0358
lfoot -18.9523 -10.9844
ltoes -12.9399
350
root 15.4951 21.4776 24.3132 5.51132 3.47839 7.19563
lowerback 3.2739 0.0519819 -10.0156
upperback -0.362974 -0.395326 -3.01775
thorax -2.17863 -0.0927963 2.49263
lowerneck -16.0094 10.6858 13.8852
upperneck 17.1861 15.1151 -16.7777
head 10.5943 6.33237 -5.92922
rclavicle 7.95139e-016 -1.19271e-014
rhumerus -47.61 -5.0393 -79.209
rradius 23.7443
rwrist 6.50208
rhand -12.6131 22.2462
rfingers 7.12502
rthumb 13.4661 -7.2985
lclavicle 7.95139e-016 -1.19271e-014
lhumerus -36.0237 3.4805 80.9255
lradius 40.3205
lwrist 7.50834
lhand -16.0379 25.1706
lfingers 7.12502
lthumb 10.1636 54.9051
rfemur -43.3529 -12.9137 20.377
rtibia 35.1052
rfoot 9.77978 -8.25233
rtoes -25.5996
lfemur 6.65403 -4.99953 -29.3818
ltibia 26.4919
lfoot -19.0995 -11.4779
ltoes -12.3935
351
root 15.5028 21.4049 24.4794 5.17557 4.49594 7.64346
lowerback 3.5638 -0.165085 -9.87656
upperback -0.295141 -0.712408 -3.13827
thorax -2.23685 -0.251678 2.30851
lowerneck -15.8912 10.6751 13.9116
upperneck 17.4766 15.1301 -16.673
head 10.6699 6.35076 -5.90333
rclavicle 5.56597e-015 -7.23576e-014
rhumerus -47.9254 -5.43027 -78.6622
rradius 22.894
rwrist 7.3121
rhand -12.7325 22.5839
rfingers 7.12502
rthumb 13.351 -6.9684
lclavicle 5.56597e-015 -7.23576e-014
lhumerus -36.3368 3.6288 80.8057
lradius 39.2714
lwrist 7.54329
lhand -15.4193 25.7693
lfingers 7.12502
lthumb 10.7603 55.4737
rfemur -41.9179 -13.5162 19.0615
rtibia 33.4483
rfoot 10.0829 -8.61625
rtoes -24.8941
lfemur 7.50212 -5.23211 -29.6912
ltibia 27.0731
lfoot -19.4465 -12.1972
ltoes -13.1259
352
root 15.4433 21.3205 24.6321 5.36596 4.38524 7.11099
lowerback 3.21428 -0.0310034 -9.71624
upperback -0.357644 -0.48115 -2.84099
thorax -2.12917 -0.139987 2.51531
lowerneck -16.0034 10.7778 13.9821
upperneck 17.6302 15.2741 -16.6762
head 10.7785 6.41144 -5.88786
rclavicle -2.43511e-015 -3.77691e-014
rhumerus -48.086 -6.01521 -77.9979
rradius 22.1429
rwrist 8.17455
rhand -12.9914 23.1748
rfingers 7.12502
rthumb 13.1015 -6.39369
lclavicle -2.43511e-015 -3.77691e-014
lhumerus -36.5594 3.72507 80.7697
lradius 38.5747
lwrist 7.79063
lhand -15.2059 25.3767
lfingers 7.12502
lthumb 10.9662 55.0703
rfemur -41.0374 -10.8058 18.4463
rtibia 31.5515
rfoot 9.98316 -11.1849
rtoes -23.7683
lfemur 7.0534 -4.648 -28.6756
ltibia 28.4118
lfoot -20.0592 -12.7442
ltoes -15.8319
353
root 15.4219 21.2347 24.8396 5.10179 4.85924 6.9998
lowerback 2.61471 -0.0474414 -9.40948
upperback -0.0982355 -0.393861 -2.77898
thorax -1.53102 -0.130745 2.40417
lowerneck -16.0358 10.7764 13.9703
upperneck 17.8232 15.2823 -16.5904
head 10.8458 6.41688 -5.85613
rclavicle -1.93815e-015 -5.68524e-014
rhumerus -48.39 -6.80832 -77.2418
rradius 21.5058
rwrist 8.90181
rhand -12.7899 22.8794
rfingers 7.12502
rthumb 13.2957 -6.6765
lclavicle -1.93815e-015 -5.68524e-014
lhumerus -36.9534 3.64439 80.7431
lradius 38.2556
lwrist 7.93902
lhand -14.8501 25.6847
lfingers 7.12502
lthumb 11.3093 55.3598
rfemur -39.4427 -10.1829 17.6955
rtibia 29.8058
rfoot 10.092 -11.6614
rtoes -25.1379
lfemur 7.41915 -4.43002 -28.2776
ltibia 29.8786
lfoot -20.3937 -13.6247
ltoes -15.9921
